<svg width="35" height="46" viewBox="0 0 35 46" fill="none" xmlns="http://www.w3.org/2000/svg">
<g clip-path="url(#clip0_1_64)">
<path d="M4.51176 17.2527C4.77152 17.6568 4.9447 18.3495 4.9447 18.8113L4.85811 21.1203C4.82925 21.5821 5.1756 22.1594 5.57968 22.3614L7.62893 23.4293C8.03301 23.6602 8.55254 24.1509 8.78344 24.5838L9.85137 26.6331C10.0823 27.0372 10.6307 27.3835 11.0925 27.3547L13.4015 27.2681C13.8633 27.2392 14.5849 27.4413 14.9601 27.701L16.9227 28.9421C17.3268 29.2019 17.9618 29.2019 18.3659 28.9421L20.3285 27.701C20.7326 27.4413 21.4253 27.2681 21.8871 27.2681L24.1961 27.3547C24.658 27.3835 25.2352 27.0372 25.4372 26.6331L26.5052 24.5838C26.7361 24.1798 27.2267 23.6602 27.6597 23.4293L29.7089 22.3614C30.113 22.1305 30.4594 21.5821 30.4305 21.1203L30.3439 18.8113C30.315 18.3495 30.5171 17.6279 30.7768 17.2527L32.0179 15.29C32.2777 14.886 32.2777 14.251 32.0179 13.8469L30.7768 11.8842C30.5171 11.4802 30.3439 10.7875 30.3439 10.3256L30.4305 8.01663C30.4594 7.55482 30.113 6.97757 29.7089 6.77553L27.6597 5.70761C27.2556 5.47671 26.7361 4.98604 26.5052 4.5531L25.4372 2.50384C25.2063 2.09976 24.658 1.75341 24.1961 1.78227L21.8871 1.86886C21.4253 1.89773 20.7038 1.69569 20.3285 1.43592L18.3659 0.194824C17.9618 -0.0649412 17.3268 -0.0649412 16.9227 0.194824L14.9601 1.43592C14.556 1.69569 13.8633 1.86886 13.4015 1.86886L11.0925 1.78227C10.6307 1.69569 10.0534 2.01318 9.85137 2.44612L8.78344 4.58196C8.55254 4.98604 8.06187 5.50557 7.62893 5.73647L5.57968 6.80439C5.1756 7.03529 4.82925 7.58369 4.85811 8.04549L4.9447 10.3545C4.97356 10.8163 4.77152 11.5379 4.51176 11.9131L3.27066 13.818C3.0109 14.2221 3.0109 14.8571 3.27066 15.2612L4.51176 17.2527ZM18.5102 30.3564L18.3947 30.4141C17.9618 30.7027 17.2402 30.7027 16.8073 30.4141L14.6426 29.0287C14.2096 28.7401 13.4303 28.538 12.9108 28.5669L10.342 28.6824C9.8225 28.7112 9.21639 28.336 8.95662 27.8742L7.77325 25.6229C7.54235 25.19 7.02282 24.6416 6.56101 24.3818L6.47443 24.555L0.00917053 39.1307L7.6578 38.9575L12.0449 45.798L18.3947 30.443L18.5102 30.3564ZM28.2658 24.6704C27.9194 24.9591 27.5731 25.3343 27.3999 25.6518L26.2165 27.9319C25.9856 28.3937 25.3507 28.7401 24.8311 28.7401L22.2623 28.6246C21.916 28.6246 21.4542 28.7112 21.079 28.8267L18.2216 35.1765L23.1282 46L27.1979 39.2173L34.9908 39.477L28.2658 24.6704Z" fill="#0086C5"/>
</g>
<defs>
<clipPath id="clip0_1_64">
<rect width="35" height="46" fill="white"/>
</clipPath>
</defs>
</svg>
